<svg xmlns="http://www.w3.org/2000/svg" viewBox="0 0 320 320" width="320" height="320">
<defs>
    <radialGradient id="bg-web-12-1ring" cx="50%" cy="42%" r="70%"><stop offset="0%" stop-color="#26272b"/><stop offset="100%" stop-color="#151518"/></radialGradient>
    <filter id="gw-web-12-1ring" x="-70%" y="-70%" width="240%" height="240%" color-interpolation-filters="sRGB"><feGaussianBlur stdDeviation="3"/></filter>
    <filter id="gb-web-12-1ring" x="-90%" y="-90%" width="280%" height="280%" color-interpolation-filters="sRGB"><feGaussianBlur stdDeviation="5.5"/></filter>
  </defs>
  <rect width="320" height="320" fill="url(#bg-web-12-1ring)"/>
  <!-- HALO underneath -->
  <g filter="url(#gw-web-12-1ring)" opacity="0.5"><line x1="160" y1="160" x2="212" y2="69.93" stroke="#ffffff" stroke-width="2.4" stroke-linecap="round" opacity="0.62"/><line x1="160" y1="160" x2="250.07" y2="108" stroke="#ffffff" stroke-width="2.4" stroke-linecap="round" opacity="0.62"/><line x1="160" y1="160" x2="264" y2="160" stroke="#ffffff" stroke-width="2.4" stroke-linecap="round" opacity="0.62"/><line x1="160" y1="160" x2="250.07" y2="212" stroke="#ffffff" stroke-width="2.4" stroke-linecap="round" opacity="0.62"/><line x1="160" y1="160" x2="212" y2="250.07" stroke="#ffffff" stroke-width="2.4" stroke-linecap="round" opacity="0.62"/><line x1="160" y1="160" x2="160" y2="264" stroke="#ffffff" stroke-width="2.4" stroke-linecap="round" opacity="0.62"/><line x1="160" y1="160" x2="108" y2="250.07" stroke="#ffffff" stroke-width="2.4" stroke-linecap="round" opacity="0.62"/><line x1="160" y1="160" x2="69.93" y2="212" stroke="#ffffff" stroke-width="2.4" stroke-linecap="round" opacity="0.62"/><line x1="160" y1="160" x2="56" y2="160" stroke="#ffffff" stroke-width="2.4" stroke-linecap="round" opacity="0.62"/><line x1="160" y1="160" x2="69.93" y2="108" stroke="#ffffff" stroke-width="2.4" stroke-linecap="round" opacity="0.62"/><line x1="160" y1="160" x2="108" y2="69.93" stroke="#ffffff" stroke-width="2.4" stroke-linecap="round" opacity="0.62"/><circle cx="212" cy="69.93" r="8.5" fill="#ffffff" opacity="1"/><circle cx="250.07" cy="108" r="8.5" fill="#ffffff" opacity="1"/><circle cx="264" cy="160" r="8.5" fill="#ffffff" opacity="1"/><circle cx="250.07" cy="212" r="8.5" fill="#ffffff" opacity="1"/><circle cx="212" cy="250.07" r="8.5" fill="#ffffff" opacity="1"/><circle cx="160" cy="264" r="8.5" fill="#ffffff" opacity="1"/><circle cx="108" cy="250.07" r="8.5" fill="#ffffff" opacity="1"/><circle cx="69.93" cy="212" r="8.5" fill="#ffffff" opacity="1"/><circle cx="56" cy="160" r="8.5" fill="#ffffff" opacity="1"/><circle cx="69.93" cy="108" r="8.5" fill="#ffffff" opacity="1"/><circle cx="108" cy="69.93" r="8.5" fill="#ffffff" opacity="1"/><circle cx="160" cy="160" r="11" fill="#ffffff" opacity="1"/></g>
  <g filter="url(#gb-web-12-1ring)" opacity="0.9"><line x1="160" y1="160" x2="160" y2="56" stroke="#3b82f6" stroke-width="3.2" stroke-linecap="round" opacity="1"/><circle cx="160" cy="56" r="10" fill="#3b82f6" opacity="1"/></g>
  <!-- CRISP on top -->
  <g><line x1="160" y1="56" x2="212" y2="69.93" stroke="#ffffff" stroke-width="2" stroke-linecap="round" opacity="0.32"/><line x1="212" y1="69.93" x2="250.07" y2="108" stroke="#ffffff" stroke-width="2" stroke-linecap="round" opacity="0.32"/><line x1="250.07" y1="108" x2="264" y2="160" stroke="#ffffff" stroke-width="2" stroke-linecap="round" opacity="0.32"/><line x1="264" y1="160" x2="250.07" y2="212" stroke="#ffffff" stroke-width="2" stroke-linecap="round" opacity="0.32"/><line x1="250.07" y1="212" x2="212" y2="250.07" stroke="#ffffff" stroke-width="2" stroke-linecap="round" opacity="0.32"/><line x1="212" y1="250.07" x2="160" y2="264" stroke="#ffffff" stroke-width="2" stroke-linecap="round" opacity="0.32"/><line x1="160" y1="264" x2="108" y2="250.07" stroke="#ffffff" stroke-width="2" stroke-linecap="round" opacity="0.32"/><line x1="108" y1="250.07" x2="69.93" y2="212" stroke="#ffffff" stroke-width="2" stroke-linecap="round" opacity="0.32"/><line x1="69.93" y1="212" x2="56" y2="160" stroke="#ffffff" stroke-width="2" stroke-linecap="round" opacity="0.32"/><line x1="56" y1="160" x2="69.93" y2="108" stroke="#ffffff" stroke-width="2" stroke-linecap="round" opacity="0.32"/><line x1="69.93" y1="108" x2="108" y2="69.93" stroke="#ffffff" stroke-width="2" stroke-linecap="round" opacity="0.32"/><line x1="108" y1="69.93" x2="160" y2="56" stroke="#ffffff" stroke-width="2" stroke-linecap="round" opacity="0.32"/></g>
  <g><line x1="160" y1="160" x2="212" y2="69.93" stroke="#ffffff" stroke-width="2.4" stroke-linecap="round" opacity="0.62"/><line x1="160" y1="160" x2="250.07" y2="108" stroke="#ffffff" stroke-width="2.4" stroke-linecap="round" opacity="0.62"/><line x1="160" y1="160" x2="264" y2="160" stroke="#ffffff" stroke-width="2.4" stroke-linecap="round" opacity="0.62"/><line x1="160" y1="160" x2="250.07" y2="212" stroke="#ffffff" stroke-width="2.4" stroke-linecap="round" opacity="0.62"/><line x1="160" y1="160" x2="212" y2="250.07" stroke="#ffffff" stroke-width="2.4" stroke-linecap="round" opacity="0.62"/><line x1="160" y1="160" x2="160" y2="264" stroke="#ffffff" stroke-width="2.4" stroke-linecap="round" opacity="0.62"/><line x1="160" y1="160" x2="108" y2="250.07" stroke="#ffffff" stroke-width="2.4" stroke-linecap="round" opacity="0.62"/><line x1="160" y1="160" x2="69.93" y2="212" stroke="#ffffff" stroke-width="2.4" stroke-linecap="round" opacity="0.62"/><line x1="160" y1="160" x2="56" y2="160" stroke="#ffffff" stroke-width="2.4" stroke-linecap="round" opacity="0.62"/><line x1="160" y1="160" x2="69.93" y2="108" stroke="#ffffff" stroke-width="2.4" stroke-linecap="round" opacity="0.62"/><line x1="160" y1="160" x2="108" y2="69.93" stroke="#ffffff" stroke-width="2.4" stroke-linecap="round" opacity="0.62"/></g>
  <g><circle cx="212" cy="69.93" r="8.5" fill="#ffffff" opacity="1"/><circle cx="250.07" cy="108" r="8.5" fill="#ffffff" opacity="1"/><circle cx="264" cy="160" r="8.5" fill="#ffffff" opacity="1"/><circle cx="250.07" cy="212" r="8.5" fill="#ffffff" opacity="1"/><circle cx="212" cy="250.07" r="8.5" fill="#ffffff" opacity="1"/><circle cx="160" cy="264" r="8.5" fill="#ffffff" opacity="1"/><circle cx="108" cy="250.07" r="8.5" fill="#ffffff" opacity="1"/><circle cx="69.93" cy="212" r="8.5" fill="#ffffff" opacity="1"/><circle cx="56" cy="160" r="8.5" fill="#ffffff" opacity="1"/><circle cx="69.93" cy="108" r="8.5" fill="#ffffff" opacity="1"/><circle cx="108" cy="69.93" r="8.5" fill="#ffffff" opacity="1"/><circle cx="160" cy="160" r="11" fill="#ffffff" opacity="1"/></g>
  <g><line x1="160" y1="160" x2="160" y2="56" stroke="#3b82f6" stroke-width="3.2" stroke-linecap="round" opacity="1"/><circle cx="160" cy="56" r="10" fill="#3b82f6" opacity="1"/><circle cx="160" cy="56" r="4.5" fill="#cfe0ff" opacity="1"/></g>
</svg>
